<svg xmlns="http://www.w3.org/2000/svg" viewBox="0 0 290.76 366.83"><defs><style>.cls-1{fill:none;stroke:#000;stroke-miterlimit:10;stroke-width:17px;}</style></defs><title>LogoOfficiel</title><g id="Calque_2" data-name="Calque 2"><g id="Calque_5" data-name="Calque 5"><path class="cls-1" d="M56.63,25c-.34-4.24-.58-8.48-.76-12.69H8.59v270.3h270.3V281C163.18,267.17,67.6,161,56.63,25Z"/><circle class="cls-1" cx="101.5" cy="33.38" r="23.09"/><polyline class="cls-1" points="147.12 8.5 282.26 8.5 282.26 242.76"/><path class="cls-1" d="M143.74.05s0,90,104.74,183"/><path d="M0,347.76v-3.13H7.32v3.75c0,3.92,1.55,5.33,4,5.33s4-1.41,4-5.48c0-4.54-1.55-7.44-6.61-12.37C2.25,329.52.14,325.06.14,318.8c0-8.62,4-13.63,11.54-13.63s11.26,5,11.26,13.78v2.27H15.62V318.4c0-3.91-1.4-5.4-3.87-5.4s-3.87,1.49-3.87,5.25c0,4,1.62,6.89,6.69,11.82,6.47,6.34,8.51,10.72,8.51,17.53,0,8.92-4.08,13.93-11.68,13.93S0,356.52,0,347.76Z"/><path d="M25.48,348.07V318.64c0-8.46,3.94-13.47,11.4-13.47s11.4,5,11.4,13.47v5.79H41v-6.34c0-3.6-1.55-5.09-3.87-5.09s-3.87,1.49-3.87,5.09V348.7c0,3.6,1.54,5,3.87,5s3.87-1.41,3.87-5v-8.38h7.32v7.75c0,8.45-3.94,13.46-11.4,13.46S25.48,356.52,25.48,348.07Z"/><path d="M51.37,306H62.84c8,0,11.47,4.15,11.47,12.6v3.37c0,5.63-1.61,9.23-5.06,10.8v.16c3.87,1.33,5.13,5.4,5.13,11.58v9.63a17.86,17.86,0,0,0,.85,6.65H67.35c-.43-1.41-.71-2.27-.71-6.73V344c0-5.09-1.33-6.73-4.85-6.73H59.11v23.48H51.37Zm10.56,23.48c2.88,0,4.64-1.41,4.64-5.79v-4.23c0-3.91-1.19-5.63-3.94-5.63H59.11v15.65Z"/><path d="M77.62,347.76V319c0-8.77,4.15-13.78,11.75-13.78s11.76,5,11.76,13.78v28.81c0,8.76-4.16,13.77-11.76,13.77S77.62,356.52,77.62,347.76Zm15.77.55V318.4c0-3.91-1.55-5.4-4-5.4s-4,1.49-4,5.4v29.91c0,3.91,1.55,5.4,4,5.4S93.39,352.22,93.39,348.31Z"/><path d="M104.79,306h7.74v47h12.74v7.83H104.79Z"/><path d="M127.45,306h7.74v47h12.74v7.83H127.45Z"/><path d="M159.32,349V343.3c0-5.56,1.55-9.55,5.7-11.43v-.16c-3.65-1.72-5.34-5.32-5.34-11.19v-1c0-8.77,3.8-13.54,11.54-13.54h8.86v7.83h-8.72c-2.46,0-3.94,1.4-3.94,5.32v3.36c0,4.39,1.76,5.8,4.64,5.8h3v-6.11h7.6v6.11h2.18v7.82h-2.18v18a17.86,17.86,0,0,0,.84,6.65h-7.74a14.39,14.39,0,0,1-.7-4.3H175c-1.62,3.21-3.59,5.08-7,5.08C162.21,361.53,159.32,357.07,159.32,349Zm15.77-.23V336.09h-3c-3.52,0-5.06,1.88-5.06,7v5.56c0,3.91,1.54,5.09,3.72,5.09C173.12,353.71,174.67,352.22,175.09,348.78Z"/><path d="M197.33,306H208.8c8,0,11.47,4.15,11.47,12.6v3.37c0,5.63-1.62,9.23-5.07,10.8v.16c3.87,1.33,5.14,5.4,5.14,11.58v9.63a17.86,17.86,0,0,0,.84,6.65H213.3c-.42-1.41-.7-2.27-.7-6.73V344c0-5.09-1.34-6.73-4.86-6.73h-2.67v23.48h-7.74Zm10.55,23.48c2.89,0,4.65-1.41,4.65-5.79v-4.23c0-3.91-1.2-5.63-3.94-5.63h-3.52v15.65Z"/><path d="M224.14,306h7.74v54.79h-7.74Z"/><path d="M236.1,306h11.82c7.75,0,11.54,4.77,11.54,13.54v27.71c0,8.77-3.79,13.54-11.54,13.54H236.1Zm11.68,47c2.47,0,3.94-1.41,3.94-5.32V319.11c0-3.92-1.47-5.32-3.94-5.32h-3.94v39.13Z"/><path d="M263.12,306h21.12v7.83H270.86v14.48h10.63v7.82H270.86v16.83h13.38v7.83H263.12Z"/><text/></g></g></svg>