<?xml version="1.0" encoding="utf-8"?>
<!-- Generator: Adobe Illustrator 24.0.3, SVG Export Plug-In . SVG Version: 6.00 Build 0)  -->
<svg version="1.1" id="Calque_1" xmlns="http://www.w3.org/2000/svg" xmlns:xlink="http://www.w3.org/1999/xlink" x="0px" y="0px"
	 viewBox="0 0 290.8 366.8" style="enable-background:new 0 0 290.8 366.8;" xml:space="preserve">
<style type="text/css">
	.st0{fill:none;stroke:#FFFFFF;stroke-width:17;stroke-miterlimit:10;}
	.st1{fill:#FFFFFF;}
</style>
<title>LogoOfficiel</title>
<g id="Calque_2_1_">
	<g id="Calque_5">
		<path class="st0" d="M56.6,25c-0.3-4.2-0.6-8.5-0.8-12.7H8.6v270.3h270.3V281C163.2,267.2,67.6,161,56.6,25z"/>
		<circle class="st0" cx="101.5" cy="33.4" r="23.1"/>
		<polyline class="st0" points="147.1,8.5 282.3,8.5 282.3,242.8 		"/>
		<path class="st0" d="M143.7,0c0,0,0,90,104.7,183"/>
		<path class="st1" d="M0,347.8v-3.1h7.3v3.8c0,3.9,1.5,5.3,4,5.3s4-1.4,4-5.5c0-4.5-1.6-7.4-6.6-12.4c-6.5-6.3-8.6-10.8-8.6-17.1
			c0-8.6,4-13.6,11.5-13.6s11.3,5,11.3,13.8v2.3h-7.3v-2.8c0-3.9-1.4-5.4-3.9-5.4s-3.9,1.5-3.9,5.2c0,4,1.6,6.9,6.7,11.8
			c6.5,6.3,8.5,10.7,8.5,17.5c0,8.9-4.1,13.9-11.7,13.9S0,356.5,0,347.8z"/>
		<path class="st1" d="M25.5,348.1v-29.4c0-8.5,3.9-13.5,11.4-13.5s11.4,5,11.4,13.5v5.8H41v-6.3c0-3.6-1.5-5.1-3.9-5.1
			s-3.9,1.5-3.9,5.1v30.6c0,3.6,1.5,5,3.9,5s3.9-1.4,3.9-5v-8.4h7.3v7.8c0,8.5-3.9,13.5-11.4,13.5S25.5,356.5,25.5,348.1z"/>
		<path class="st1" d="M51.4,306h11.5c8,0,11.5,4.1,11.5,12.6v3.4c0,5.6-1.6,9.2-5.1,10.8v0.2c3.9,1.3,5.1,5.4,5.1,11.6v9.6
			c-0.1,2.3,0.1,4.5,0.8,6.6h-7.9c-0.4-1.4-0.7-2.3-0.7-6.7V344c0-5.1-1.3-6.7-4.8-6.7h-2.7v23.5h-7.7V306z M61.9,329.5
			c2.9,0,4.6-1.4,4.6-5.8v-4.2c0-3.9-1.2-5.6-3.9-5.6h-3.5v15.6L61.9,329.5z"/>
		<path class="st1" d="M77.6,347.8V319c0-8.8,4.2-13.8,11.8-13.8s11.8,5,11.8,13.8v28.8c0,8.8-4.2,13.8-11.8,13.8
			S77.6,356.5,77.6,347.8z M93.4,348.3v-29.9c0-3.9-1.6-5.4-4-5.4s-4,1.5-4,5.4v29.9c0,3.9,1.6,5.4,4,5.4S93.4,352.2,93.4,348.3z"/>
		<path class="st1" d="M104.8,306h7.7v47h12.7v7.8h-20.5V306z"/>
		<path class="st1" d="M127.4,306h7.7v47h12.7v7.8h-20.5V306z"/>
		<path class="st1" d="M159.3,349v-5.7c0-5.6,1.6-9.5,5.7-11.4v-0.2c-3.6-1.7-5.3-5.3-5.3-11.2v-1c0-8.8,3.8-13.5,11.5-13.5h8.9v7.8
			h-8.7c-2.5,0-3.9,1.4-3.9,5.3v3.4c0,4.4,1.8,5.8,4.6,5.8h3v-6.1h7.6v6.1h2.2v7.8h-2.2v18c-0.1,2.2,0.1,4.5,0.8,6.6h-7.7
			c-0.5-1.4-0.7-2.8-0.7-4.3H175c-1.6,3.2-3.6,5.1-7,5.1C162.2,361.5,159.3,357.1,159.3,349z M175.1,348.8v-12.7h-3
			c-3.5,0-5.1,1.9-5.1,7v5.6c0,3.9,1.5,5.1,3.7,5.1C173.1,353.7,174.7,352.2,175.1,348.8L175.1,348.8z"/>
		<path class="st1" d="M197.3,306h11.5c8,0,11.5,4.1,11.5,12.6v3.4c0,5.6-1.6,9.2-5.1,10.8v0.2c3.9,1.3,5.1,5.4,5.1,11.6v9.6
			c-0.1,2.2,0.1,4.5,0.8,6.6h-7.9c-0.4-1.4-0.7-2.3-0.7-6.7V344c0-5.1-1.3-6.7-4.9-6.7h-2.7v23.5h-7.7V306z M207.9,329.5
			c2.9,0,4.6-1.4,4.6-5.8v-4.2c0-3.9-1.2-5.6-3.9-5.6h-3.5v15.6L207.9,329.5z"/>
		<path class="st1" d="M224.1,306h7.7v54.8h-7.7V306z"/>
		<path class="st1" d="M236.1,306h11.8c7.8,0,11.5,4.8,11.5,13.5v27.7c0,8.8-3.8,13.5-11.5,13.5h-11.8V306z M247.8,353
			c2.5,0,3.9-1.4,3.9-5.3v-28.6c0-3.9-1.5-5.3-3.9-5.3h-3.9v39.1L247.8,353z"/>
		<path class="st1" d="M263.1,306h21.1v7.8h-13.4v14.5h10.6v7.8h-10.6V353h13.4v7.8h-21.1V306z"/>
	</g>
</g>
</svg>
