<?xml version="1.0" encoding="iso-8859-1"?>
<!-- Generator: Adobe Illustrator 19.0.0, SVG Export Plug-In . SVG Version: 6.00 Build 0)  -->
<svg version="1.1" id="Capa_1" xmlns="http://www.w3.org/2000/svg" xmlns:xlink="http://www.w3.org/1999/xlink" x="0px" y="0px"
	 viewBox="0 0 63.001 63.001" style="enable-background:new 0 0 63.001 63.001;" xml:space="preserve">
<g id="Skateboarding">
	<path d="M51.333,50.782l-2.315,1.736c-1.256,0.942-2.812,1.461-4.383,1.461h-7.979l2.668-13.341c0.05-0.25,0.003-0.51-0.132-0.726
		l-6.566-10.506l3.795-14.418L47.015,31.47c0.191,0.297,0.513,0.459,0.842,0.459c0.185,0,0.373-0.051,0.54-0.159
		c0.465-0.299,0.599-0.917,0.301-1.382L37.111,12.365l0.586-2.226c0.254,0.038,0.508,0.063,0.762,0.063
		c0.883,0,1.755-0.231,2.539-0.685c2.434-1.406,3.272-4.53,1.868-6.966c-0.681-1.179-1.781-2.023-3.098-2.376
		c-1.314-0.351-2.69-0.172-3.87,0.509l0,0.001c-2.433,1.406-3.27,4.53-1.866,6.965c0.435,0.754,1.055,1.351,1.78,1.789
		c0,0.001,0,0.001,0,0.001l-0.393,1.492c-0.041,0.009-0.08,0.033-0.12,0.047c-0.053,0.019-0.109,0.023-0.16,0.051l-12.231,6.795
		c-0.218,0.122-0.384,0.32-0.463,0.558l-4.077,12.231c-0.175,0.524,0.108,1.09,0.632,1.265c0.105,0.035,0.212,0.052,0.316,0.052
		c0.419,0,0.809-0.265,0.949-0.684l3.954-11.862l10.512-5.84l-4.151,15.772c-0.001,0.005,0,0.01-0.001,0.015
		c-0.011,0.043-0.005,0.088-0.01,0.133c-0.004,0.037-0.021,0.069-0.021,0.106v10.636l-6.689,13.379
		c-0.064,0.127-0.095,0.261-0.102,0.394h-5.354c-1.531,0-3.049-0.506-4.276-1.426l-2.363-1.772c-0.441-0.332-1.642,1.268-1.2,1.6
		l2.364,1.772c1.571,1.177,3.515,1.825,5.476,1.825h26.231c2,0,3.983-0.661,5.583-1.861l2.316-1.737L51.333,50.782z M35.765,6.651
		c-0.853-1.48-0.344-3.379,1.135-4.234c0.716-0.413,1.552-0.523,2.352-0.309c0.8,0.214,1.469,0.727,1.882,1.443
		c0.854,1.481,0.344,3.38-1.136,4.234c-0.715,0.414-1.549,0.524-2.35,0.309C36.847,7.879,36.178,7.366,35.765,6.651z M25.898,53.98
		l6.545-13.09c0.069-0.139,0.105-0.292,0.105-0.447v-7.385l4.736,7.579l-2.64,13.2c-0.01,0.049,0.003,0.095,0,0.144H25.898z"/>
	<circle cx="21.54" cy="60.439" r="2.561"/>
	<circle cx="42.036" cy="60.439" r="2.562"/>
</g>
<g>
</g>
<g>
</g>
<g>
</g>
<g>
</g>
<g>
</g>
<g>
</g>
<g>
</g>
<g>
</g>
<g>
</g>
<g>
</g>
<g>
</g>
<g>
</g>
<g>
</g>
<g>
</g>
<g>
</g>
</svg>
